<svg width="34" height="32" viewBox="0 0 34 32" fill="none" xmlns="http://www.w3.org/2000/svg">
<path d="M3.61456 4.55005H11.829C13.2814 4.55005 14.6743 5.08236 15.7013 6.02988C16.7283 6.97741 17.3053 8.26252 17.3053 9.60252V27.2862C17.3053 26.2812 16.8725 25.3174 16.1023 24.6067C15.332 23.8961 14.2874 23.4968 13.1981 23.4968H3.61456V4.55005Z" stroke="#2C5282" stroke-width="2" stroke-linecap="round" stroke-linejoin="round"/>
<path d="M30.9959 4.55005H22.7815C21.3291 4.55005 19.9362 5.08236 18.9092 6.02988C17.8822 6.97741 17.3052 8.26252 17.3052 9.60252V27.2862C17.3052 26.2812 17.738 25.3174 18.5082 24.6067C19.2785 23.8961 20.3231 23.4968 21.4124 23.4968H30.9959V4.55005Z" stroke="#2C5282" stroke-width="2" stroke-linecap="round" stroke-linejoin="round"/>
</svg>
