<svg width="36" height="34" viewBox="0 0 36 34" fill="none" xmlns="http://www.w3.org/2000/svg">
    <g clip-path="url(#clip0)">
    <path d="M18.3858 30.4322C8.99701 30.3523 1.44359 23.5723 1.51413 15.288C1.58467 7.00381 9.25245 0.353378 18.6412 0.433322C28.03 0.513266 35.5834 7.29331 35.5129 15.5775C35.4429 23.799 27.7746 30.5122 18.3858 30.4322ZM18.6279 2.0023C10.306 1.93144 3.42647 7.89818 3.36395 15.241C3.30143 22.5838 10.0783 28.6669 18.4002 28.7377C26.7221 28.8086 33.6016 22.8418 33.6641 15.499C33.7266 8.15618 26.9497 2.07316 18.6279 2.0023Z" fill="white"/>
    <path d="M11.0511 23.0264L9.70979 21.8225L25.9053 7.77579L27.2466 8.97972L11.0511 23.0264Z" fill="white"/>
    <path d="M25.7744 23.1518L9.82041 8.83134L11.182 7.65042L27.1359 21.9709L25.7744 23.1518Z" fill="white"/>
    </g>
    <defs>
    <clipPath id="clip0">
    <rect width="35" height="33" fill="white" transform="translate(0.744385 0.280884) rotate(0.487855)"/>
    </clipPath>
    </defs>
</svg>
