<svg width="34" height="33" viewBox="0 0 34 33" fill="none" xmlns="http://www.w3.org/2000/svg">
<g clip-path="url(#clip0)">
<path d="M31.3779 12.7775L29.1149 12.5196C28.9506 12.0403 28.9013 11.565 28.6658 11.0951L30.3689 9.12515C31.1917 8.13003 31.1548 6.69609 30.2348 5.78873L28.8328 4.38719C27.9128 3.47849 26.4671 3.40557 25.4595 4.21841L23.4661 5.82384C23.0075 5.5997 22.5269 5.40257 22.0245 5.23379L21.7643 3.04236C21.6315 1.76639 20.5527 1.14124 19.2521 1.14124H17.2423C15.9417 1.14124 14.8601 1.76639 14.7287 3.04371L14.4672 5.40257C13.9812 5.56324 13.4993 5.67666 13.0228 5.9089L11.0254 4.26027C10.0177 3.44878 8.5624 3.50009 7.64238 4.4088L6.22129 5.79953C5.30127 6.70689 5.22734 8.13543 6.05015 9.13055L7.67798 11.0978C7.44934 11.5502 7.24946 12.0255 7.07969 12.521L4.17316 12.7775C2.87939 12.9072 1.56097 13.9725 1.56097 15.2552V17.2373C1.56097 18.5201 2.87939 19.5867 4.17453 19.7164L6.90856 19.9743C7.07285 20.4536 7.35762 20.9289 7.5931 21.3988L6.00771 23.3687C5.1849 24.3639 5.28074 25.7978 6.20075 26.7052L7.6328 28.1067C8.55281 29.0141 10.0122 29.087 11.0212 28.2755L13.0201 26.6701C13.4787 26.8942 13.9634 27.0913 14.4658 27.2601L14.7273 29.8728C14.8587 31.1488 15.9403 32.1966 17.2409 32.1966H19.2507C20.5513 32.1966 21.6329 31.1488 21.7643 29.8728L22.0258 27.3033C22.5118 27.1413 22.9938 26.9239 23.4702 26.6917L25.4677 28.2863C26.4753 29.0964 27.9306 29.0208 28.8506 28.1121L30.2717 26.7079C31.1917 25.8005 31.2657 24.3652 30.4429 23.3701L28.815 21.4001C29.0423 20.9478 29.2422 20.4711 29.4133 19.9756L31.3779 19.7177C32.6717 19.5881 33.0496 18.5214 33.0496 17.2387V15.2566C33.0496 13.9725 32.6717 12.9072 31.3779 12.7775ZM31.6805 17.2387C31.6805 17.6667 31.7969 18.0218 31.3656 18.065L28.4687 18.3783C28.2085 18.4039 28.0867 18.5498 27.9484 18.7685C27.9005 18.8441 27.9224 18.9251 27.9019 19.0102C27.6801 19.7582 27.4131 20.4576 27.0503 21.0909C26.8792 21.388 26.9257 21.7593 27.1448 22.0239L29.1327 24.4206C29.4065 24.7527 29.3859 25.2307 29.0793 25.5332L27.6595 26.9347C27.3529 27.2372 26.8682 27.2615 26.5328 26.9914L24.1041 25.0376C23.8946 24.8675 23.6139 24.8121 23.3525 24.881C23.2744 24.9013 23.2005 24.9337 23.132 24.9742C22.4393 25.3482 21.7301 25.6358 21.0209 25.8302C20.6869 25.922 20.4446 26.2056 20.409 26.5458L20.0913 29.8607C20.0475 30.286 19.6875 30.8477 19.2535 30.8477H17.2437C16.8097 30.8477 16.4496 30.2873 16.4058 29.862L16.0882 26.6674C16.0622 26.4108 15.9143 26.1219 15.6925 25.9855C15.6158 25.9382 15.5337 25.8748 15.4474 25.8545C14.689 25.6358 13.9798 25.3293 13.3377 24.9728C13.0365 24.804 12.66 24.8283 12.3917 25.0444L9.96159 26.9941C9.62479 27.2655 9.14014 27.2385 8.83347 26.9361L7.41238 25.5332C7.10571 25.2307 7.08106 24.7514 7.35488 24.4206L9.33592 22.0239C9.50705 21.8173 9.56592 21.5405 9.49473 21.2813C9.4742 21.2043 9.44134 21.1314 9.40027 21.0639C9.02103 20.3807 8.72942 19.6813 8.53228 18.9818C8.43918 18.6524 8.15168 18.4134 7.80667 18.3783L4.18959 18.065C3.75559 18.0218 2.93004 17.6654 2.93004 17.2387V15.2566C2.93004 14.8285 3.75559 14.4734 4.18685 14.4302L7.55476 14.117C7.81488 14.0913 8.17221 13.9468 8.31049 13.7294C8.36251 13.6471 8.46109 13.5593 8.48025 13.4661C8.70067 12.7262 9.02651 12.0336 9.38521 11.4057C9.55634 11.1086 9.53991 10.7373 9.32086 10.4727L7.34803 8.07602C7.07422 7.74387 7.10297 7.26588 7.40964 6.96343L8.8321 5.56189C9.13877 5.25944 9.62343 5.23514 9.96022 5.50518L12.3903 7.45897C12.6012 7.6291 12.8818 7.68581 13.1433 7.61559C13.2213 7.59534 13.2953 7.56294 13.3637 7.52243C14.0565 7.14841 14.7657 6.86082 15.4748 6.66638C15.8089 6.57457 16.0512 6.29102 16.0868 5.95076L16.4044 3.05856C16.4469 2.63054 16.8083 2.49147 17.2409 2.49147H19.2507C19.6847 2.49147 20.0448 2.63054 20.0886 3.05586L20.4062 6.03987C20.4322 6.29642 20.5801 6.48005 20.8019 6.61507C20.8785 6.66233 20.9607 6.67313 21.0469 6.69339C21.8054 6.91212 22.5146 7.19162 23.1567 7.54943C23.4579 7.71821 23.833 7.68041 24.1027 7.46437L26.5328 5.50788C26.8696 5.23784 27.3542 5.26079 27.6609 5.56324L29.082 6.96478C29.3887 7.26723 29.4133 7.74522 29.1395 8.07737L27.1585 10.4727C26.9873 10.6793 26.9285 10.9561 26.9997 11.2153C27.0202 11.2923 27.0531 11.3652 27.0941 11.4327C27.4734 12.1159 27.765 12.8153 27.9621 13.5148C28.0552 13.8442 28.3427 14.0832 28.6877 14.1183L31.3643 14.4316C31.7955 14.4748 31.6805 14.8299 31.6805 15.2579V17.2387Z" fill="#2C5282"/>
<path d="M18.2472 10.4335C14.997 10.4335 12.352 13.0421 12.352 16.2476C12.352 19.453 14.997 22.0617 18.2472 22.0617C21.4974 22.0617 24.1424 19.453 24.1424 16.2476C24.1424 13.0421 21.4974 10.4335 18.2472 10.4335ZM18.2472 20.3995C15.9253 20.3995 14.0359 18.5362 14.0359 16.2462C14.0359 13.9562 15.9253 12.0929 18.2472 12.0929C20.5691 12.0929 22.4585 13.9562 22.4585 16.2462C22.4585 18.5362 20.5678 20.3995 18.2472 20.3995Z" fill="#2C5282"/>
</g>
<defs>
<clipPath id="clip0">
<rect width="32.8577" height="32.4055" fill="white" transform="translate(0.876465 0.466064)"/>
</clipPath>
</defs>
</svg>
