<svg width="13" height="13" viewBox="0 0 13 13" fill="none" xmlns="http://www.w3.org/2000/svg">
<g clip-path="url(#clip0)">
<path d="M10.7908 1.79323L10.0591 2.57336L11.2564 3.77734L11.9881 2.99721L10.7908 1.79323Z" fill="#FFFCFE"/>
<path d="M6.04277 6.86032L6.03272 6.86047L4.34302 8.66205L4.34316 8.67197L4.35877 9.7775L5.65046 9.75794L7.12906 8.18167L7.129 8.17708L10.9198 4.1353L9.72511 2.93415L6.04277 6.86032Z" fill="#FFFCFE"/>
<path d="M8.38316 11.4104L1.84181 11.5094L1.70516 1.83301L8.24652 1.73396L8.27149 3.50184L9.19231 2.52029L9.16734 0.752175L9.11267 0.753003L8.23286 0.766324L1.6915 0.865368L0.811686 0.878689L0.757019 0.879517L0.92099 12.4912L0.975657 12.4904L1.85547 12.477L8.39683 12.378L9.27664 12.3647L9.33131 12.3638L9.25406 6.89354L8.33325 7.87532L8.38316 11.4104Z" fill="#FFFCFE"/>
</g>
<defs>
<clipPath id="clip0">
<rect width="11.215" height="11.6128" fill="white" transform="matrix(0.999885 -0.0151394 0.0141198 0.9999 0.757019 0.879517)"/>
</clipPath>
</defs>
</svg>
