<svg width="34" height="34" viewBox="0 0 34 34" fill="none" xmlns="http://www.w3.org/2000/svg">
<path d="M4.58997 25.3802C4.94935 25.3802 5.23172 25.0927 5.23172 24.7269V17.893L9.1079 15.7761V21.3818C9.1079 21.7476 9.39027 22.0351 9.74965 22.0351C10.109 22.0351 10.3914 21.7476 10.3914 21.3818V13.594L3.96105 17.1089V24.7269C3.94822 25.0797 4.23059 25.3802 4.58997 25.3802Z" fill="#2C5282"/>
<path d="M12.3167 20.4279C12.6761 20.4279 12.9584 20.1404 12.9584 19.7745V8.22352L16.8346 6.10671V24.8967C16.8346 25.2626 17.117 25.55 17.4764 25.55C17.8357 25.55 18.1181 25.2626 18.1181 24.8967V3.92456L11.6749 7.43951V19.7745C11.6749 20.1273 11.9573 20.4279 12.3167 20.4279Z" fill="#2C5282"/>
<path d="M20.0433 24.7007C20.4027 24.7007 20.6851 24.4132 20.6851 24.0473V11.5947L24.5613 9.47792V20.7545C24.5613 21.1204 24.8436 21.4079 25.203 21.4079C25.5624 21.4079 25.8448 21.1204 25.8448 20.7545V7.29578L19.4144 10.8107V24.0473C19.4016 24.4132 19.6968 24.7007 20.0433 24.7007Z" fill="#2C5282"/>
<path d="M32.904 19.5393C32.7885 19.3433 32.5832 19.2126 32.3521 19.2126H27.924C27.693 19.2126 27.4877 19.3433 27.3721 19.5393C27.2566 19.7353 27.2566 19.9836 27.3721 20.1927L28.1679 21.5908L24.6383 23.7729C24.0992 24.1127 23.573 24.4393 23.0339 24.7791C22.6488 25.0273 22.2638 25.2625 21.8916 25.5108C20.8904 26.1642 20.0048 26.7522 19.1834 27.3271C18.7598 27.6146 18.3491 27.9151 17.9256 28.2026L12.1755 22.4793L1.80476 29.1956C1.50955 29.3916 1.41971 29.7967 1.61223 30.0972C1.74058 30.2932 1.94595 30.3978 2.15131 30.3978C2.26682 30.3978 2.38234 30.3586 2.49785 30.2932L11.9958 24.1388L17.7972 29.9012L18.5801 29.3263C19.0165 29.0127 19.4529 28.6991 19.9022 28.3986C20.7108 27.8367 21.5835 27.2618 22.5847 26.6084C22.9569 26.3602 23.3419 26.125 23.7142 25.8767C24.2404 25.537 24.7795 25.2103 25.3057 24.8705L28.553 22.8452L28.8097 22.6884L29.5926 24.0735C29.7081 24.2695 29.9135 24.4001 30.1445 24.4001C30.3755 24.4001 30.5809 24.2695 30.6964 24.0735L32.9169 20.1665C33.0196 19.9967 33.0196 19.7484 32.904 19.5393ZM30.1317 22.4663L29.0279 20.5193H31.2355L30.1317 22.4663Z" fill="#2C5282"/>
</svg>
