<svg width="52" height="47" viewBox="0 0 52 47" fill="none" xmlns="http://www.w3.org/2000/svg">
<path d="M38.1241 11.0156H33.3125V11.8535C33.3123 12.0208 33.2387 12.1811 33.1078 12.2994C32.977 12.4177 32.7996 12.4842 32.6146 12.4844H20.1979C20.0129 12.4842 19.8355 12.4177 19.7047 12.2994C19.5738 12.1811 19.5002 12.0208 19.5 11.8535V11.0156H14.6884C14.4694 11.0131 14.2521 11.0496 14.0487 11.123C13.8454 11.1964 13.66 11.3053 13.5032 11.4435C13.3464 11.5816 13.2213 11.7463 13.135 11.9282C13.0486 12.1101 13.0028 12.3056 13 12.5035V38.1684C13.0028 38.3663 13.0486 38.5618 13.135 38.7437C13.2213 38.9255 13.3464 39.0903 13.5032 39.2284C13.66 39.3666 13.8454 39.4755 14.0487 39.5489C14.2521 39.6223 14.4694 39.6588 14.6884 39.6563H38.1241C38.3431 39.6588 38.5604 39.6223 38.7638 39.5489C38.9671 39.4755 39.1525 39.3666 39.3093 39.2284C39.4661 39.0903 39.5912 38.9255 39.6775 38.7437C39.7639 38.5618 39.8097 38.3663 39.8125 38.1684V12.5035C39.8097 12.3056 39.7639 12.1101 39.6775 11.9282C39.5912 11.7463 39.4661 11.5816 39.3093 11.4435C39.1525 11.3053 38.9671 11.1964 38.7638 11.123C38.5604 11.0496 38.3431 11.0131 38.1241 11.0156V11.0156Z" stroke="#2C5282" stroke-width="2" stroke-miterlimit="10"/>
<path d="M32.487 9.54686H28.4375V9.27367C28.4454 8.85864 28.2993 8.45317 28.0224 8.12199C27.7455 7.79081 27.3539 7.55301 26.91 7.44655C26.6133 7.37652 26.3028 7.36836 26.0021 7.42267C25.7014 7.47698 25.4183 7.59234 25.1741 7.76005C24.9299 7.92776 24.7311 8.14342 24.5927 8.39075C24.4543 8.63808 24.3798 8.91061 24.375 9.18775V9.54686H20.3255C20.1066 9.54686 19.8966 9.62547 19.7418 9.76539C19.587 9.90532 19.5 10.0951 19.5 10.293V11.7382C19.5 11.9361 19.587 12.1259 19.7418 12.2658C19.8966 12.4058 20.1066 12.4844 20.3255 12.4844H32.487C32.7059 12.4844 32.9159 12.4058 33.0707 12.2658C33.2255 12.1259 33.3125 11.9361 33.3125 11.7382V10.293C33.3125 10.0951 33.2255 9.90532 33.0707 9.76539C32.9159 9.62547 32.7059 9.54686 32.487 9.54686V9.54686Z" stroke="#2C5282" stroke-width="2" stroke-miterlimit="10" stroke-linecap="round"/>
<path d="M20.3125 17.625H34.9375" stroke="#2C5282" stroke-width="2" stroke-miterlimit="10" stroke-linecap="round"/>
<path d="M15.4375 16.8906L16.25 17.625L18.6875 14.6875" stroke="#2C5282" stroke-width="2" stroke-miterlimit="10" stroke-linecap="round"/>
<path d="M20.3125 23.5H34.9375" stroke="#2C5282" stroke-width="2" stroke-miterlimit="10" stroke-linecap="round"/>
<path d="M15.4375 22.7656L16.25 23.5L18.6875 20.5625" stroke="#2C5282" stroke-width="2" stroke-miterlimit="10" stroke-linecap="round"/>
<path d="M20.3125 29.375H34.9375" stroke="#2C5282" stroke-width="2" stroke-miterlimit="10" stroke-linecap="round"/>
<path d="M15.4375 28.6406L16.25 29.375L18.6875 26.4375" stroke="#2C5282" stroke-width="2" stroke-miterlimit="10" stroke-linecap="round"/>
<path d="M20.3125 35.25H34.9375" stroke="#2C5282" stroke-width="2" stroke-miterlimit="10" stroke-linecap="round"/>
<path d="M15.4375 34.5156L16.25 35.25L18.6875 32.3125" stroke="#2C5282" stroke-width="2" stroke-miterlimit="10" stroke-linecap="round"/>
</svg>
