<svg width="34" height="31" viewBox="0 0 34 31" fill="none" xmlns="http://www.w3.org/2000/svg">
<path d="M22.7807 2.93831C22.4142 2.82811 22.0119 2.84746 21.662 2.99213C21.312 3.1368 21.0429 3.39499 20.9137 3.71011C20.7845 4.02524 20.8057 4.3716 20.9727 4.6733C21.1396 4.975 21.4387 5.20742 21.8044 5.31965C24.8056 6.2332 27.3351 8.03061 28.9457 10.3942C30.5563 12.7578 31.1443 15.5354 30.6059 18.2361C30.0675 20.9368 28.4373 23.3868 26.0034 25.1529C23.5695 26.9191 20.4886 27.8878 17.3052 27.8878C14.1219 27.8878 11.041 26.9191 8.6071 25.1529C6.17319 23.3868 4.54298 20.9368 4.00457 18.2361C3.46616 15.5354 4.05422 12.7578 5.66482 10.3942C7.27542 8.03061 9.80486 6.2332 12.8061 5.31965C13.1704 5.20653 13.4679 4.97399 13.6338 4.67276C13.7997 4.37153 13.8205 4.02605 13.6916 3.7117C13.5627 3.39734 13.2946 3.13961 12.9458 2.99474C12.597 2.84986 12.1958 2.8296 11.8298 2.93836C8.17578 4.05021 5.09608 6.2382 3.13499 9.11559C1.1739 11.993 0.457698 15.3745 1.11297 18.6625C1.76823 21.9505 3.75278 24.9332 6.71584 27.0835C9.6789 29.2338 13.4297 30.4131 17.3052 30.4131C21.1808 30.4131 24.9316 29.2338 27.8946 27.0835C30.8577 24.9332 32.8422 21.9505 33.4975 18.6625C34.1528 15.3745 33.4366 11.993 31.4755 9.11559C29.5144 6.2382 26.4347 4.05021 22.7807 2.93836V2.93831Z" fill="#2C5282"/>
<path d="M17.3052 14.5298C17.4979 14.5298 17.6886 14.4971 17.8666 14.4337C18.0446 14.3702 18.2063 14.2772 18.3425 14.16C18.4787 14.0427 18.5868 13.9035 18.6605 13.7504C18.7342 13.5972 18.7721 13.433 18.7721 13.2672V1.3609C18.7721 1.02603 18.6176 0.704874 18.3425 0.468084C18.0674 0.231294 17.6943 0.0982666 17.3052 0.0982666C16.9162 0.0982666 16.5431 0.231294 16.268 0.468084C15.9929 0.704874 15.8384 1.02603 15.8384 1.3609V13.2672C15.8384 13.433 15.8763 13.5972 15.95 13.7504C16.0237 13.9035 16.1318 14.0427 16.268 14.16C16.4042 14.2772 16.5659 14.3702 16.7439 14.4337C16.9219 14.4971 17.1126 14.5298 17.3052 14.5298Z" fill="#2C5282"/>
</svg>
