<svg width="13" height="13" viewBox="0 0 13 13" fill="none" xmlns="http://www.w3.org/2000/svg">
<g clip-path="url(#clip0)">
<path d="M1.60278 4.55005H2.61524H10.7149" stroke="#F7FAFC" stroke-linecap="round" stroke-linejoin="round"/>
<path d="M4.13399 4.54997V3.46663C4.13399 3.17932 4.24066 2.90377 4.43053 2.7006C4.6204 2.49744 4.87793 2.3833 5.14645 2.3833H7.17137C7.43989 2.3833 7.69742 2.49744 7.88729 2.7006C8.07716 2.90377 8.18383 3.17932 8.18383 3.46663V4.54997M9.70252 4.54997V12.1333C9.70252 12.4206 9.59585 12.6962 9.40598 12.8993C9.21611 13.1025 8.95858 13.2166 8.69006 13.2166H3.62776C3.35924 13.2166 3.10171 13.1025 2.91184 12.8993C2.72197 12.6962 2.6153 12.4206 2.6153 12.1333V4.54997H9.70252Z" stroke="#F7FAFC" stroke-linecap="round" stroke-linejoin="round"/>
<path d="M4.13399 4.54997V3.46663C4.13399 3.17932 4.24066 2.90377 4.43053 2.7006C4.6204 2.49744 4.87793 2.3833 5.14645 2.3833H7.17137C7.43989 2.3833 7.69742 2.49744 7.88729 2.7006C8.07716 2.90377 8.18383 3.17932 8.18383 3.46663V4.54997M9.70252 4.54997V12.1333C9.70252 12.4206 9.59585 12.6962 9.40598 12.8993C9.21611 13.1025 8.95858 13.2166 8.69006 13.2166H3.62776C3.35924 13.2166 3.10171 13.1025 2.91184 12.8993C2.72197 12.6962 2.6153 12.4206 2.6153 12.1333V4.54997H9.70252Z" stroke="#F7FAFC" stroke-linecap="round" stroke-linejoin="round"/>
<path d="M5.14636 7.2583V10.5083" stroke="#F7FAFC" stroke-linecap="round" stroke-linejoin="round"/>
<path d="M7.17139 7.2583V10.5083" stroke="#F7FAFC" stroke-linecap="round" stroke-linejoin="round"/>
</g>
<defs>
<clipPath id="clip0">
<rect width="12.1495" height="13" fill="white" transform="translate(0.0841064)"/>
</clipPath>
</defs>
</svg>
